<?xml version="1.0" encoding="iso-8859-1"?>
<!-- Uploaded to: SVG Repo, www.svgrepo.com, Generator: SVG Repo Mixer Tools -->
<!DOCTYPE svg PUBLIC "-//W3C//DTD SVG 1.1//EN" "http://www.w3.org/Graphics/SVG/1.1/DTD/svg11.dtd">
<svg fill="#000000" version="1.1" id="Capa_1" xmlns="http://www.w3.org/2000/svg" xmlns:xlink="http://www.w3.org/1999/xlink" 
	 width="800px" height="800px" viewBox="0 0 161.228 161.229"
	 xml:space="preserve">
<g>
	<g>
		<polygon points="74.72,160.589 74.75,160.553 74.687,160.553 		"/>
		<path d="M96.988,101.598c0-5.225,2.07-9.962,5.407-13.494c-3.002-1.169-6.071-2.204-9.237-3.014
			c13.518-9.098,22.828-27.03,22.828-43.178c0-22.789-18.486-41.272-41.266-41.272c-22.786,0-41.266,18.478-41.266,41.272
			c0,16.148,9.311,34.081,22.828,43.178C23.958,93.292,0,121.356,0,142.151c0,12.288,37.338,18.401,74.692,18.401l-20.904-20.898
			l17.619-42.6h-0.179l-6.848-7.849c3.312,1.188,6.759,1.905,10.339,1.905c3.578,0,7.021-0.718,10.325-1.899l-6.848,7.837h-0.167
			l17.619,42.6l-20.904,20.904c9.74,0,19.486-0.402,28.564-1.236c-3.866-3.604-6.332-8.701-6.332-14.4v-43.318H96.988z"/>
		<path d="M147.716,88.086h-30.987c-7.447,0-13.506,6.064-13.506,13.512v43.318c0,7.453,6.059,13.518,13.506,13.518h30.987
			c7.447,0,13.512-6.064,13.512-13.518v-43.318C161.228,94.145,155.164,88.086,147.716,88.086z M157.368,144.916
			c0,5.321-4.323,9.645-9.651,9.645h-30.987c-5.322,0-9.646-4.323-9.646-9.645v-43.318c0-5.328,4.323-9.658,9.646-9.658h30.987
			c5.328,0,9.651,4.33,9.651,9.658V144.916z"/>
		<path d="M119.116,131.629h-4.384c-0.993,0-1.803,0.512-1.803,1.133v2.765c0,0.621,0.81,1.132,1.803,1.132h4.384
			c0.986,0,1.803-0.511,1.803-1.132v-2.765C120.918,132.141,120.102,131.629,119.116,131.629z"/>
		<path d="M148.544,99.26h-32.644c-2.138,0-3.885,1.564-3.885,3.482v8.477c0,1.912,1.747,3.477,3.885,3.477h32.644
			c2.144,0,3.897-1.564,3.897-3.477v-8.477C152.442,100.83,150.682,99.26,148.544,99.26z"/>
		<path d="M129.322,131.629h-4.391c-0.992,0-1.797,0.512-1.797,1.133v2.765c0,0.621,0.805,1.132,1.797,1.132h4.391
			c0.992,0,1.802-0.511,1.802-1.132v-2.765C131.124,132.141,130.314,131.629,129.322,131.629z"/>
		<path d="M139.514,131.629h-4.384c-0.999,0-1.803,0.512-1.803,1.133v2.765c0,0.621,0.804,1.132,1.803,1.132h4.384
			c0.993,0,1.803-0.511,1.803-1.132v-2.765C141.317,132.141,140.507,131.629,139.514,131.629z"/>
		<path d="M149.72,131.629h-4.385c-0.992,0-1.802,0.512-1.802,1.133v2.765c0,0.621,0.81,1.132,1.802,1.132h4.385
			c0.986,0,1.802-0.511,1.802-1.132v-2.765C151.522,132.141,150.707,131.629,149.72,131.629z"/>
		<path d="M114.726,127.769h4.378c0.998,0,1.802-0.512,1.802-1.139v-2.759c0-0.627-0.804-1.139-1.802-1.139h-4.378
			c-0.993,0-1.803,0.512-1.803,1.139v2.759C112.923,127.257,113.733,127.769,114.726,127.769z"/>
		<path d="M124.925,127.769h4.384c0.992,0,1.803-0.512,1.803-1.139v-2.759c0-0.627-0.811-1.139-1.803-1.139h-4.384
			c-0.999,0-1.803,0.512-1.803,1.139v2.759C123.123,127.257,123.926,127.769,124.925,127.769z"/>
		<path d="M135.119,127.769h4.39c0.993,0,1.803-0.512,1.803-1.139v-2.759c0-0.627-0.81-1.139-1.803-1.139h-4.39
			c-0.987,0-1.803,0.512-1.803,1.139v2.759C133.316,127.257,134.131,127.769,135.119,127.769z"/>
		<path d="M145.324,127.769h4.396c0.986,0,1.802-0.512,1.802-1.139v-2.759c0-0.627-0.815-1.139-1.802-1.139h-4.396
			c-0.986,0-1.803,0.512-1.803,1.139v2.759C143.521,127.257,144.337,127.769,145.324,127.769z"/>
		<path d="M119.104,138.053h-4.372c-0.999,0-1.814,0.512-1.814,1.139v2.759c0,0.627,0.815,1.139,1.814,1.139h4.372
			c0.998,0,1.802-0.523,1.802-1.139v-2.759C120.906,138.564,120.102,138.053,119.104,138.053z"/>
		<path d="M129.315,138.053h-4.396c-0.979,0-1.784,0.512-1.784,1.139v2.759c0,0.627,0.805,1.139,1.784,1.139h4.396
			c0.993,0,1.803-0.523,1.803-1.139v-2.759C131.118,138.564,130.308,138.053,129.315,138.053z"/>
		<path d="M139.514,138.053h-4.384c-0.999,0-1.803,0.512-1.803,1.139v2.759c0,0.627,0.804,1.139,1.803,1.139h4.384
			c0.993,0,1.803-0.523,1.803-1.139v-2.759C141.317,138.564,140.507,138.053,139.514,138.053z"/>
		<path d="M149.708,138.053h-4.372c-0.998,0-1.814,0.512-1.814,1.139v2.759c0,0.627,0.816,1.139,1.814,1.139h4.372
			c0.999,0,1.814-0.523,1.814-1.139v-2.759C151.522,138.564,150.707,138.053,149.708,138.053z"/>
		<path d="M119.104,144.478h-4.385c-0.986,0-1.802,0.511-1.802,1.132v2.765c0,0.621,0.815,1.133,1.802,1.133h4.385
			c0.998,0,1.802-0.512,1.802-1.133v-2.765C120.906,144.988,120.102,144.478,119.104,144.478z"/>
		<path d="M129.315,144.478h-4.396c-0.979,0-1.796,0.511-1.796,1.132v2.765c0,0.621,0.816,1.133,1.796,1.133h4.396
			c0.993,0,1.803-0.512,1.803-1.133v-2.765C131.118,144.988,130.308,144.478,129.315,144.478z"/>
		<path d="M139.508,144.478h-4.39c-0.987,0-1.803,0.511-1.803,1.132v2.765c0,0.621,0.815,1.133,1.803,1.133h4.39
			c0.993,0,1.803-0.512,1.803-1.133v-2.765C141.311,144.988,140.501,144.478,139.508,144.478z"/>
		<path d="M149.708,144.478h-4.384c-0.986,0-1.803,0.511-1.803,1.132v2.765c0,0.621,0.816,1.133,1.803,1.133h4.384
			c0.986,0,1.803-0.512,1.803-1.133v-2.765C151.51,144.988,150.694,144.478,149.708,144.478z"/>
	</g>
</g>
</svg>