<?xml version="1.0" encoding="iso-8859-1"?>
<!-- Uploaded to: SVG Repo, www.svgrepo.com, Generator: SVG Repo Mixer Tools -->
<!DOCTYPE svg PUBLIC "-//W3C//DTD SVG 1.1//EN" "http://www.w3.org/Graphics/SVG/1.1/DTD/svg11.dtd">
<svg fill="#000000" height="800px" width="800px" version="1.1" id="Capa_1" xmlns="http://www.w3.org/2000/svg" xmlns:xlink="http://www.w3.org/1999/xlink" 
	 viewBox="0 0 489.553 489.553" xml:space="preserve">
<g>
	<path d="M460.536,121.212l-73.74-0.001c30.946-2.763,55.291-28.824,55.291-60.478C442.087,27.245,414.842,0,381.353,0
		c-33.489,0-60.734,27.245-60.734,60.734c0,31.654,24.344,57.715,55.291,60.478l-141.035-0.001v-81.89
		c0-19.319-15.717-35.037-35.036-35.037H37.868c-19.319,0-35.037,15.718-35.037,35.037v244.608
		c0,19.319,15.718,35.037,35.037,35.037h161.971c19.319,0,35.036-15.717,35.036-35.037v-81.626
		c24.554,3.776,53.068,8.191,68.346,10.559v241.969c0,19.146,15.576,34.722,34.723,34.722h7.604c17.92,0,32.156-13.608,34.62-33.092
		c0.325-2.571,0.722-5.624,1.175-9.044c0.465,3.471,0.872,6.543,1.202,9.085c2.523,19.46,16.757,33.05,34.613,33.05h7.604
		c19.146,0,34.724-15.576,34.724-34.722V298.782h1.054c14.438,0,26.184-11.746,26.184-26.184V147.394
		C486.718,132.958,474.971,121.212,460.536,121.212z M346.619,60.734c0-19.152,15.582-34.734,34.734-34.734
		c19.152,0,34.733,15.582,34.733,34.734c0,19.153-15.581,34.734-34.733,34.734C362.201,95.468,346.619,79.887,346.619,60.734z
		 M37.868,30.284h161.971c4.982,0,9.036,4.054,9.036,9.037v44.295H28.831V39.321C28.831,34.338,32.885,30.284,37.868,30.284z
		 M208.875,283.929c0,4.983-4.054,9.037-9.036,9.037H37.868c-4.983,0-9.037-4.054-9.037-9.037V109.616h180.044v11.595h-7.805
		c-12.109,0-22.327,8.244-25.348,19.414h-43.369c-7.18,0-13,5.82-13,13s5.82,13,13,13h42.457v4.1
		c-0.004,13.224,9.999,23.964,24.324,26.118c2.742,0.413,6.035,0.912,9.74,1.476V283.929z M460.722,272.598
		c0,0.101-0.083,0.184-0.186,0.184h-14.052c-7.18,0-13,5.82-13,13v169.049c0,4.81-3.913,8.722-8.724,8.722h-7.604
		c-5.906,0-8.329-6.534-8.83-10.395c-3.26-25.133-13.993-101.622-14.101-102.392c-0.9-6.416-6.388-11.189-12.866-11.193
		c-0.003,0-0.005,0-0.008,0c-6.475,0-11.963,4.766-12.871,11.177c-0.108,0.76-10.805,76.306-14.109,102.45
		c-0.486,3.845-2.892,10.353-8.825,10.353h-7.604c-4.81,0-8.723-3.913-8.723-8.722V201.722c0-6.41-4.672-11.863-11.007-12.846
		c-0.866-0.134-86.96-13.494-115.212-17.743c-1.136-0.171-1.852-0.525-2.191-0.75v-22.91c0-0.145,0.116-0.262,0.26-0.262
		l156.342,0.001l10.163,12.733l-12.783,76.008c-0.645,3.843,0.466,7.773,3.029,10.709l13.74,15.73
		c2.469,2.826,6.038,4.448,9.791,4.448c3.752,0,7.322-1.622,9.79-4.447l13.74-15.729c2.564-2.935,3.677-6.866,3.03-10.709
		l-12.783-76.008l10.165-12.734l55.241,0.001c0.103,0,0.186,0.085,0.186,0.185V272.598z"/>
	<path d="M182.104,222.625h-8.875v-8.875c0-7.18-5.82-13-13-13s-13,5.82-13,13v8.875h-8.875c-7.18,0-13,5.82-13,13s5.82,13,13,13
		h8.875v8.875c0,7.18,5.82,13,13,13s13-5.82,13-13v-8.875h8.875c7.18,0,13-5.82,13-13S189.283,222.625,182.104,222.625z"/>
	<path d="M98.604,222.625h-43.75c-7.18,0-13,5.82-13,13s5.82,13,13,13h43.75c7.18,0,13-5.82,13-13S105.783,222.625,98.604,222.625z"
		/>
	<path d="M74.854,192.625c-7.18,0-13,5.82-13,13s5.82,13,13,13h3.75c7.18,0,13-5.82,13-13s-5.82-13-13-13H74.854z"/>
	<path d="M78.604,252.125h-3.75c-7.18,0-13,5.82-13,13s5.82,13,13,13h3.75c7.18,0,13-5.82,13-13S85.783,252.125,78.604,252.125z"/>
	<path d="M52.068,178.285c2.538,2.538,5.865,3.808,9.192,3.808c3.327,0,6.654-1.269,9.192-3.808l6.275-6.275l6.275,6.275
		c2.538,2.538,5.865,3.808,9.192,3.808c3.327,0,6.654-1.269,9.192-3.808c5.077-5.077,5.077-13.308,0-18.385l-6.275-6.275
		l6.275-6.275c5.077-5.077,5.077-13.308,0-18.385c-5.076-5.077-13.309-5.077-18.385,0l-6.275,6.275l-6.275-6.275
		c-5.076-5.077-13.309-5.077-18.385,0c-5.077,5.077-5.077,13.308,0,18.385l6.275,6.275l-6.275,6.275
		C46.991,164.977,46.991,173.208,52.068,178.285z"/>
</g>
</svg>