<?xml version="1.0" ?>
<!-- Uploaded to: SVG Repo, www.svgrepo.com, Generator: SVG Repo Mixer Tools -->
<svg width="800px" height="800px" viewBox="0 0 64 64" xmlns="http://www.w3.org/2000/svg">
<g id="a"/>
<g id="b"/>
<g id="c"/>
<g id="d"/>
<g id="e"/>
<g id="f"/>
<g id="g"/>
<g id="h"/>
<g id="i"/>
<g id="j"/>
<g id="k"/>
<g id="l"/>
<g id="m"/>
<g id="n"/>
<g id="o"/>
<g id="p"/>
<g id="q"/>
<g id="r"/>
<g id="s"/>
<g id="t"/>
<g id="u"/>
<g id="v"/>
<g id="w"/>
<g id="x"/>
<g id="y">
<path d="M8.62,21.45l20.2,6.25,8.31-6.25v-3.59c0-1.99-1.6-3.59-3.59-3.59H8.59c-1.99,0-3.59,1.6-3.59,3.59v1.61l2.39,3.62,1.23-1.64Z" fill="#75cdf8" fill-rule="evenodd"/>
<path d="M5,17.86v28.23c0,2.02,1.63,3.65,3.65,3.65H28.07l16.27-23.45v-1.19c0-2.02-1.63-3.65-3.65-3.65H8.62c-2.02,0-3.62-1.6-3.62-3.59Z" fill="#8fd7f8" fill-rule="evenodd"/>
<path d="M44.34,25.1c0-2.02-1.63-3.65-3.65-3.65h-4c2.02,0,3.65,1.63,3.65,3.65v6.05l4-3.22v-2.83Z" fill="#75cdf8" fill-rule="evenodd"/>
<path d="M27.84,29.35c-1.88,0-3.4,1.52-3.4,3.4s1.52,3.4,3.4,3.4v6.79c-1.88,0-3.4,1.52-3.4,3.4s1.52,3.4,3.4,3.4h15.92c.79,0,1.51-.27,2.09-.71l-1.5-14.84-5.41-4.84h-11.09Z" fill="#8996a8" fill-rule="evenodd"/>
<path d="M36.93,42.94h-9.09c-1.88,0-3.4-1.52-3.4-3.4s1.52-3.4,3.4-3.4h7.8l1.29,6.8Z" fill="#7a8594" fill-rule="evenodd"/>
<path d="M58.77,37.49c0,6.41-5.2,11.61-11.61,11.61s-11.61-5.2-11.61-11.61,5.2-11.61,11.61-11.61,11.61,5.2,11.61,11.61Z" fill="#e8a3c1" fill-rule="evenodd"/>
<path d="M52.02,37.49c0,2.68-2.18,4.86-4.86,4.86s-4.86-2.18-4.86-4.86,2.18-4.86,4.86-4.86,4.86,2.17,4.86,4.86Z" fill="#8996a8" fill-rule="evenodd"/>
<path d="M47.16,25.89c-.52,0-1.04,.04-1.56,.11,5.74,.79,10.02,5.7,10.02,11.5,0,5.8-4.29,10.71-10.04,11.5,.52,.07,1.05,.11,1.58,.11,6.41,0,11.61-5.2,11.61-11.61,0-6.41-5.2-11.61-11.61-11.61Z" fill="#e38fb6" fill-rule="evenodd"/>
<path d="M37.13,21.45v-3.59c0-1.99-1.6-3.59-3.59-3.59h-4.02c1.99,0,3.59,1.6,3.59,3.59v3.59h4.02Z" fill="#6bbdf5" fill-rule="evenodd"/>
<path d="M47.39,24.88c-.7,0-1.38,.1-2.05,.21,0-2.56-2.09-4.64-4.65-4.64h-2.56v-2.59c0-2.53-2.06-4.59-4.59-4.59H8.59c-2.53,0-4.59,2.06-4.59,4.59v28.23c0,2.56,2.09,4.65,4.65,4.65H43.99c.85,0,1.65-.28,2.36-.74,.35,.03,.69,.11,1.04,.11,7.07,0,12.61-5.76,12.61-12.61s-5.64-12.61-12.61-12.61Zm8.14,19.34l-3.36-3.36c.49-.69,.83-1.5,.98-2.37h4.75c-.21,2.17-1.05,4.13-2.37,5.73Zm-14.86,1.41l3.36-3.36c.69,.49,1.5,.83,2.37,.98v4.75c-2.17-.21-4.13-1.05-5.73-2.37Zm-3.78-7.14h4.75c.15,.87,.49,1.67,.98,2.37l-3.36,3.36c-1.32-1.59-2.16-3.56-2.37-5.73Zm-11.21,1.05c0-1.32,1.08-2.4,2.4-2.4h6.74c0,.12-.04,.23-.04,.35,0,1.57,.32,3.06,.85,4.45h-7.56c-1.32,0-2.4-1.08-2.4-2.4Zm0-6.8c0-1.32,1.08-2.4,2.4-2.4h8.95c-.98,1.42-1.67,3.04-2,4.8h-6.95c-1.32,0-2.4-1.08-2.4-2.4Zm20.72-5.76v4.75c-.87,.15-1.67,.49-2.37,.98l-3.36-3.36c1.59-1.32,3.56-2.16,5.73-2.37Zm1,14.37c-2.13,0-3.86-1.73-3.86-3.86s1.73-3.86,3.86-3.86,3.86,1.73,3.86,3.86-1.73,3.86-3.86,3.86Zm-10.51-4.86c.21-2.17,1.05-4.13,2.37-5.73l3.36,3.36c-.49,.69-.83,1.5-.98,2.37h-4.75Zm13.88-3.78c-.69-.49-1.5-.83-2.37-.98v-4.75c2.17,.21,4.13,1.05,5.73,2.37l-3.36,3.36Zm-2.37,10.54c.87-.15,1.67-.49,2.37-.98l3.36,3.36c-1.59,1.32-3.56,2.16-5.73,2.37v-4.75Zm4.76-6.76c-.15-.87-.49-1.67-.98-2.37l3.36-3.36c1.32,1.59,2.16,3.56,2.37,5.72h-4.75ZM8.59,15.26h24.95c1.43,0,2.59,1.16,2.59,2.59v2.59H8.62c-1.47,0-2.62-1.14-2.62-2.59s1.16-2.59,2.59-2.59Zm-2.59,30.82V21.53c.75,.53,1.63,.91,2.62,.91H40.69c1.46,0,2.65,1.19,2.65,2.65v.51c-1.72,.59-3.28,1.51-4.58,2.74h-10.69c-2.43,0-4.4,1.97-4.4,4.4,0,1.4,.7,2.59,1.72,3.4-1.02,.81-1.72,2-1.72,3.4s.7,2.59,1.72,3.4c-1.02,.81-1.72,2-1.72,3.4,0,.9,.34,1.7,.81,2.4H8.65c-1.46,0-2.65-1.19-2.65-2.65Zm22.07,2.65c-1.32,0-2.4-1.08-2.4-2.4s1.07-2.4,2.4-2.4h8.54c1.26,2.11,2.67,3.54,5.18,4.8h-13.72Z"/>
<path d="M9.48,43.92c-.27,0-.52,.11-.71,.29-.19,.19-.29,.44-.29,.71s.11,.52,.29,.71c.19,.19,.44,.29,.71,.29s.52-.11,.71-.29c.19-.19,.29-.44,.29-.71s-.11-.52-.29-.71c-.19-.19-.44-.29-.71-.29Z"/>
<path d="M9.48,39.77c-.27,0-.52,.11-.71,.29-.19,.19-.29,.44-.29,.71s.11,.52,.29,.71c.19,.19,.44,.29,.71,.29s.52-.1,.71-.29c.19-.19,.29-.44,.29-.71s-.11-.52-.29-.71c-.19-.19-.44-.29-.71-.29Z"/>
<path d="M9.48,35.62c-.27,0-.52,.1-.71,.29-.19,.19-.29,.44-.29,.71s.11,.52,.29,.71c.19,.19,.44,.29,.71,.29s.52-.11,.71-.29c.19-.19,.29-.44,.29-.71s-.11-.52-.29-.71c-.19-.19-.44-.29-.71-.29Z"/>
</g>
<g id="a`"/>
<g id="aa"/>
<g id="ab"/>
<g id="ac"/>
<g id="ad"/>
<g id="ae"/>
<g id="af"/>
<g id="ag"/>
<g id="ah"/>
<g id="ai"/>
<g id="aj"/>
<g id="ak"/>
<g id="al"/>
<g id="am"/>
<g id="an"/>
<g id="ao"/>
<g id="ap"/>
<g id="aq"/>
<g id="ar"/>
<g id="as"/>
<g id="at"/>
<g id="au"/>
<g id="av"/>
<g id="aw"/>
<g id="ax"/>
</svg>