<?xml version="1.0" encoding="iso-8859-1"?>
<!-- Uploaded to: SVG Repo, www.svgrepo.com, Generator: SVG Repo Mixer Tools -->
<!DOCTYPE svg PUBLIC "-//W3C//DTD SVG 1.1//EN" "http://www.w3.org/Graphics/SVG/1.1/DTD/svg11.dtd">
<svg fill="#000000" height="800px" width="800px" version="1.1" id="Capa_1" xmlns="http://www.w3.org/2000/svg" xmlns:xlink="http://www.w3.org/1999/xlink" 
	 viewBox="0 0 406.891 406.891" xml:space="preserve">
<path id="XMLID_284_" d="M97.909,288.688l-50.653,72.339c-1.556,2.222-4.038,3.412-6.56,3.412c-1.585,0-3.186-0.469-4.582-1.447
	c-3.619-2.534-4.499-7.522-1.964-11.142l50.653-72.339c2.534-3.619,7.524-4.498,11.142-1.964
	C99.564,280.081,100.444,285.069,97.909,288.688z M126.258,298.771c-3.62-2.534-8.607-1.654-11.142,1.964l-50.654,72.34
	c-2.535,3.62-1.655,8.608,1.964,11.142c1.396,0.978,2.997,1.447,4.582,1.447c2.521,0,5.004-1.189,6.56-3.412l50.654-72.34
	C130.757,306.293,129.877,301.305,126.258,298.771z M345.294,289.831c-2.533-3.62-7.523-4.499-11.142-1.964
	c-3.619,2.534-4.499,7.523-1.964,11.142l20.416,29.156c2.395,3.419,3.31,7.591,2.576,11.746c-0.732,4.156-3.02,7.763-6.44,10.158
	c-3.619,2.534-4.499,7.522-1.965,11.142c1.557,2.223,4.038,3.412,6.561,3.412c1.584,0,3.186-0.47,4.582-1.447
	c6.921-4.846,11.545-12.122,13.02-20.486c1.476-8.364-0.381-16.782-5.228-23.703L345.294,289.831z M403.515,350.279
	c-2.94,16.678-12.149,31.183-25.928,40.844c-0.013,0.009-0.024,0.017-0.036,0.025c-28.593,20.018-68.137,13.045-88.156-15.544
	l-47.574-67.944c-1.218-1.738-1.694-3.889-1.326-5.978c0.369-2.089,1.553-3.947,3.29-5.164l21.078-14.758l-10.666-15.232
	c-4.516-6.449-6.247-14.294-4.873-22.088c0.896-5.081,3.038-9.731,6.209-13.604l-47.136-67.316l-47.137,67.318
	c8.176,9.994,9.102,24.604,1.341,35.69l-10.666,15.231l2.028,1.419c14.116,9.888,17.559,29.414,7.676,43.529l-53.757,76.771
	c-1.556,2.223-4.038,3.412-6.56,3.412c-1.585,0-3.185-0.469-4.582-1.447c-3.619-2.534-4.499-7.522-1.965-11.142l53.757-76.771
	c4.823-6.89,3.143-16.42-3.747-21.246l-8.581-6.007c-1.738-1.217-2.922-3.074-3.29-5.164c-0.369-2.09,0.107-4.24,1.325-5.979
	l15.255-21.786c4.285-6.122,2.798-14.587-3.314-18.882c-0.007-0.004-0.013-0.009-0.02-0.013c-0.005-0.004-0.011-0.008-0.017-0.012
	c-2.944-2.055-6.539-2.839-10.116-2.208c-3.587,0.632-6.698,2.604-8.761,5.55l-10.668,15.233l1.295,0.906
	c3.619,2.534,4.498,7.523,1.964,11.142c-2.532,3.62-7.522,4.499-11.142,1.964l-7.832-5.484c-0.005-0.003-0.01-0.007-0.016-0.011
	l-8.927-6.25c-3.315-2.322-7.362-3.209-11.393-2.499c-4.03,0.71-7.528,2.928-9.85,6.244l-53.755,76.771
	c-2.535,3.62-7.521,4.499-11.143,1.965c-3.619-2.534-4.499-7.522-1.965-11.142l53.755-76.771
	c4.772-6.817,11.939-11.372,20.179-12.824c8.244-1.453,16.532,0.376,23.349,5.149l2.374,1.662l10.667-15.233
	c4.513-6.447,11.292-10.755,19.089-12.13c5.083-0.897,10.183-0.473,14.906,1.18l50.476-72.087l-61.25-87.473l-12.325,8.63
	c-2.838,1.986-6.631,1.922-9.398-0.161l-24.843-18.69c-2.047-1.54-3.233-3.968-3.189-6.529s1.312-4.947,3.41-6.417l53.536-37.485
	c2.098-1.47,4.772-1.846,7.196-1.01c2.422,0.835,4.298,2.779,5.045,5.23l9.065,29.737c1.01,3.313-0.227,6.9-3.063,8.886
	l-12.327,8.631l57.909,82.702l57.909-82.703l-12.325-8.63c-2.837-1.987-4.073-5.573-3.063-8.887l9.067-29.737
	c0.747-2.45,2.623-4.395,5.045-5.229c2.422-0.836,5.098-0.46,7.196,1.01l53.536,37.485c2.099,1.469,3.366,3.855,3.41,6.417
	c0.044,2.562-1.143,4.989-3.189,6.529l-24.845,18.69c-2.768,2.083-6.561,2.146-9.398,0.16l-12.327-8.632l-61.249,87.474
	l50.478,72.089c12.189-4.266,26.234-0.136,33.995,10.949l-0.001-0.001l10.668,15.233l21.076-14.757
	c3.618-2.535,8.607-1.655,11.143,1.965l47.574,67.944C402.758,316.793,406.458,333.586,403.515,350.279z M267.915,34.516
	l28.244,19.776l11.397-8.574l-35.481-24.844L267.915,34.516z M148.88,34.516l-4.158-13.641l-35.481,24.844l11.396,8.574
	l14.064-9.848c0.02-0.014,0.038-0.027,0.057-0.04c0.02-0.013,0.038-0.026,0.058-0.04L148.88,34.516z M379.99,312.17l-42.986-61.391
	l-21.076,14.757c-0.008,0.005-0.015,0.01-0.021,0.015l-7.826,5.48c-3.618,2.534-8.607,1.655-11.142-1.964
	c-2.535-3.619-1.655-8.608,1.964-11.142l1.295-0.906l-10.667-15.232l-0.001,0c-4.289-6.128-12.767-7.622-18.896-3.331
	c-2.948,2.064-4.92,5.176-5.553,8.762c-0.632,3.585,0.157,7.184,2.223,10.133l15.255,21.786c2.534,3.619,1.654,8.607-1.965,11.142
	l-21.078,14.758l42.987,61.391c14.952,21.356,44.488,26.57,65.852,11.628c0.007-0.005,0.015-0.011,0.021-0.016
	c10.298-7.21,17.182-18.056,19.383-30.54S387.201,322.469,379.99,312.17z"/>
</svg>